<svg version="1.1" xmlns="http://www.w3.org/2000/svg" xmlns:xlink="http://www.w3.org/1999/xlink" width="512.000000pt" height="512.000000pt" viewBox="0,0,256,256"><g fill="#ffffff" fill-rule="nonzero" stroke="none" stroke-width="1" stroke-linecap="butt" stroke-linejoin="miter" stroke-miterlimit="10" stroke-dasharray="" stroke-dashoffset="0" font-family="none" font-weight="none" font-size="none" text-anchor="none" style="mix-blend-mode: normal"><g transform="translate(0.125,0.05386) scale(0.5,0.5)"><g transform="translate(0,512) scale(0.1,-0.1)"><path d="M2146,4869c-62,-15 -153,-68 -197,-116c-22,-24 -55,-74 -72,-111l-32,-67l-3,-219c-4,-265 0,-290 72,-361c103,-103 244,-100 339,5c57,64 67,101 67,264v136h1040h1040v-1840v-1840h-1040h-1040v136c0,163 -10,200 -67,264c-95,105 -236,108 -339,5c-72,-71 -76,-96 -72,-362l3,-219l37,-76c45,-91 103,-147 196,-191l67,-32h1215h1215l67,32c93,44 151,100 196,191l37,76v2015v2016l-32,67c-44,93 -100,151 -191,196l-76,37l-1195,2c-701,1 -1212,-3 -1235,-8z"></path><path d="M2733,3699c-114,-21 -194,-117 -194,-234c0,-93 13,-112 299,-397l267,-268h-1329c-1014,0 -1338,-3 -1370,-12c-86,-26 -166,-136 -166,-228c0,-92 80,-202 166,-228c32,-9 356,-12 1370,-12h1329l-267,-267c-177,-177 -272,-281 -283,-305c-21,-51 -19,-144 4,-193c23,-49 74,-99 123,-119c51,-22 143,-20 193,3c27,13 199,179 531,512c521,524 514,516 514,609c0,93 7,85 -514,608c-270,271 -503,500 -519,508c-40,21 -106,31 -154,23z"></path></g></g></g></svg>