<svg version="1.1" xmlns="http://www.w3.org/2000/svg" xmlns:xlink="http://www.w3.org/1999/xlink" width="512.000000pt" height="512.000000pt" viewBox="0,0,256,256"><g fill="#ffffff" fill-rule="nonzero" stroke="none" stroke-width="1" stroke-linecap="butt" stroke-linejoin="miter" stroke-miterlimit="10" stroke-dasharray="" stroke-dashoffset="0" font-family="none" font-weight="none" font-size="none" text-anchor="none" style="mix-blend-mode: normal"><g transform="translate(0,0)"><g><g transform="translate(-0.12512,0.05386) scale(0.5,0.5)"><g transform="translate(0,512) scale(0.1,-0.1)"><path d="M546,4869c-62,-15 -153,-68 -197,-116c-22,-24 -55,-74 -72,-111l-32,-67v-2016v-2015l37,-76c45,-91 103,-147 196,-191l67,-32h1215h1215l67,32c93,44 151,100 196,191l37,76l3,219c4,257 -1,286 -65,357c-95,106 -236,108 -338,5c-66,-65 -75,-99 -75,-269v-136h-1040h-1040v1840v1840h1040h1040v-136c0,-170 9,-204 75,-269c102,-103 243,-101 338,5c64,71 69,100 65,356l-3,219l-32,67c-44,93 -100,151 -191,196l-76,37l-1195,2c-701,1 -1212,-3 -1235,-8z"></path><path d="M3635,3681c-83,-39 -136,-123 -136,-216c0,-93 13,-112 299,-397l267,-268h-1329c-1014,0 -1338,-3 -1370,-12c-86,-26 -166,-136 -166,-228c0,-92 80,-202 166,-228c32,-9 356,-12 1370,-12h1329l-267,-267c-286,-286 -299,-305 -299,-398c0,-93 53,-177 136,-216c53,-25 147,-25 200,0c27,13 199,179 531,512c521,524 514,516 514,609c0,93 7,85 -514,609c-332,333 -504,499 -531,512c-53,25 -147,25 -200,0z"></path></g></g></g></g></g></svg>